<?xml version="1.0" standalone="no"?>
<!DOCTYPE svg PUBLIC "-//W3C//DTD SVG 1.1//EN" "http://www.w3.org/Graphics/SVG/1.1/DTD/svg11.dtd" >
<!--
2013-9-30: Created.
-->
<svg>
<metadata>
Created by iconfont
</metadata>
<defs>

<font id="iconfont" horiz-adv-x="1024" >
  <font-face
    font-family="iconfont"
    font-weight="500"
    font-stretch="normal"
    units-per-em="1024"
    ascent="896"
    descent="-128"
  />
    <missing-glyph />
    
    <glyph glyph-name="x" unicode="x" horiz-adv-x="1001"
d="M281 543q-27 -1 -53 -1h-83q-18 0 -36.5 -6t-32.5 -18.5t-23 -32t-9 -45.5v-76h912v41q0 16 -0.5 30t-0.5 18q0 13 -5 29t-17 29.5t-31.5 22.5t-49.5 9h-133v-97h-438v97zM955 310v-52q0 -23 0.5 -52t0.5 -58t-10.5 -47.5t-26 -30t-33 -16t-31.5 -4.5q-14 -1 -29.5 -0.5
t-29.5 0.5h-32l-45 128h-439l-44 -128h-29h-34q-20 0 -45 1q-25 0 -41 9.5t-25.5 23t-13.5 29.5t-4 30v167h911zM163 247q-12 0 -21 -8.5t-9 -21.5t9 -21.5t21 -8.5q13 0 22 8.5t9 21.5t-9 21.5t-22 8.5zM316 123q-8 -26 -14 -48q-5 -19 -10.5 -37t-7.5 -25t-3 -15t1 -14.5
t9.5 -10.5t21.5 -4h37h67h81h80h64h36q23 0 34 12t2 38q-5 13 -9.5 30.5t-9.5 34.5q-5 19 -11 39h-368zM336 498v228q0 11 2.5 23t10 21.5t20.5 15.5t34 6h188q31 0 51.5 -14.5t20.5 -52.5v-227h-327z" />
    

    
    <glyph glyph-name="yanjing" unicode="&#58883;" d="M1005.482 300.0788c0-95.0077-203.4831-297.684-493.4554-297.684-282.5923 0-493.4554 199.3411-493.4554 297.684 0 98.3286 211.7734 297.3655 493.4554 297.3655C804.2783 597.4433 1005.5506 398.4074 1005.482 300.0788zM512.4608 543.1447c-131.33 0-237.7933-108.9014-237.7933-243.2276 0-134.3273 106.4622-243.2276 237.7933-243.2276 131.371 0 237.8373 108.9014 237.8373 243.2276C750.2971 434.2433 643.8318 543.1447 512.4608 543.1447zM512.0266 455.2005c-83.6342 0-151.4353-69.3371-151.4353-154.8769 0-85.5306 67.8011-154.88 151.4353-154.88s151.4076 69.3494 151.4076 154.88C663.4342 385.8634 595.6608 455.2005 512.0266 455.2005z"  horiz-adv-x="1024" />

    
    <glyph glyph-name="cuowu" unicode="&#58880;" d="M490.896565 769.314259C219.768471 769.314259 0 549.544282 0 278.417694c0-271.125082 219.768471-490.890541 490.896565-490.890541 271.125082 0 490.890541 219.765459 490.890541 490.890541C981.787106 549.544282 762.021647 769.314259 490.896565 769.314259zM705.198682 130.518965l-66.404894-66.404894c-6.668047-6.668047-17.477271-6.668047-24.145318 0l-123.756424 123.754918-123.753412-123.754918c-6.668047-6.666541-17.477271-6.666541-24.146824 0.001506l-66.4064 66.4064c-6.666541 6.668047-6.666541 17.477271 0 24.145318l123.754918 123.753412-123.753412 123.753412c-6.668047 6.668047-6.668047 17.478776-0.001506 24.146824l66.404894 66.403388c6.668047 6.669553 17.478776 6.668047 24.148329 0l123.753412-123.753412 123.753412 123.753412c6.669553 6.668047 17.478776 6.668047 24.146824 0l66.404894-66.404894c6.669553-6.669553 6.669553-17.478776 0.001506-24.148329l-123.754918-123.753412 123.754918-123.754918C711.866729 147.996235 711.866729 137.187012 705.198682 130.518965z"  horiz-adv-x="1024" />

    
    <glyph glyph-name="shijian2" unicode="&#58912;" d="M511.766165 687.061476c-211.835109 0-383.561112-171.718967-383.561112-383.545396s171.726003-383.545396 383.561112-383.545396 383.561112 171.718967 383.561112 383.545396S723.600251 687.061476 511.766165 687.061476zM511.766165 16.67312c-158.425547 0-286.854714 128.423905-286.854714 286.84296s128.429167 286.84296 286.854714 286.84296 286.854714-128.423905 286.854714-286.84296S670.191712 16.67312 511.766165 16.67312zM687.832187 351.486628 559.737655 351.486628 559.737655 525.961358c0 9.611915-7.792796 17.404392-17.405105 17.404392l-61.133794 0c-9.612309 0-17.405105-7.792477-17.405105-17.404392L463.793651 334.082236l0-37.147038 0-23.984251c0-9.611915 7.083616-17.404392 15.823009-17.404392l208.215527 0c8.73837 0 15.823009 7.792477 15.823009 17.404392L703.655196 334.082236C703.655196 343.694151 696.570557 351.486628 687.832187 351.486628z"  horiz-adv-x="1024" />

    
    <glyph glyph-name="star" unicode="&#58945;" d="M514.513 854c-7.838 0-23.552-6.282-44.029-46.694-49.241-87.811-127.023-231.125-127.023-231.125s-142.211-27.584-233.945-44.909c-45.004-7.398-59.705-47.437-36.865-75.617 64.542-77.588 178.74-205.697 178.74-205.697s-18.639-140.675-29.14-236.701c-3.412-36.878 16.052-58.032 43.204-58.032 8.851 0 18.527 2.268 28.502 6.952 76.994 38.143 194.116 96.473 220.631 109.633 26.065-13.31 142.025-72.568 218.156-110.822 9.863-4.721 19.464-6.989 28.203-6.989 26.852 0 46.091 21.115 42.679 58.070-10.351 96.175-28.803 237.072-28.803 237.072s112.884 128.221 176.677 205.919c22.577 28.254 8.063 68.33-36.415 75.765-90.683 17.361-231.281 44.983-231.281 44.983s-76.882 143.5-125.56 231.422c-17.214 32.454-30.378 42.864-38.704 45.727-0.787 0.409-2.475 1.041-5.026 1.041v0z"  horiz-adv-x="1024" />

    
    <glyph glyph-name="xiazai" unicode="&#58949;" d="M548.571-30.667v445.144h-73.143v-445.144l-102.142 102.144-51.716-51.714 190.429-190.429 190.429 190.429-51.716 51.714zM802.178 596.547c-17.679 144.644-140.749 256.786-290.178 256.786s-272.499-112.143-290.178-256.786c-123.822-8.214-221.822-111-221.822-236.928 0-131.286 106.428-237.714 237.714-237.714h128v73.143h-128c-90.75 0-164.571 73.821-164.571 164.571 0 86.213 67.429 158.25 153.536 163.928l60.392 4.036 7.356 60.107c13.429 109.751 106.929 192.501 217.573 192.501s204.144-82.75 217.571-192.499l7.356-60.107 60.392-4.036c86.109-5.68 153.538-77.716 153.538-163.93 0-90.75-73.821-164.571-164.571-164.571h-128v-73.143h128c131.286 0 237.714 106.428 237.714 237.714 0 125.928-98 228.714-221.822 236.928z"  horiz-adv-x="1024" />

    
    <glyph glyph-name="fangdajing" unicode="&#58885;" d="M870.44096 11.8464l-176.41472 176.49664c-2.08896 2.08896-4.34176 3.60448-6.47168 5.28384 29.77792 45.71136 47.14496 100.18816 47.14496 158.9248 0 161.21856-130.62144 291.84-291.88096 291.84-161.13664 0-291.88096-130.62144-291.88096-291.84 0-161.25952 130.74432-291.88096 291.88096-291.88096 58.65472 0 113.21344 17.44896 159.00672 47.26784 1.67936-2.2528 3.19488-4.38272 5.24288-6.47168l176.45568-176.49664c12.00128-12.00128 27.72992-17.94048 43.45856-17.94048s31.41632 5.9392 43.45856 17.94048C894.3616-51.0272 894.3616-12.15616 870.44096 11.8464M442.85952 152.78976c-110.10048 0-199.68 89.62048-199.68 199.72096s89.62048 199.68 199.68 199.68 199.72096-89.62048 199.72096-199.68S552.91904 152.78976 442.85952 152.78976"  horiz-adv-x="1024" />

    
    <glyph glyph-name="qq" unicode="&#58902;" d="M511.999998 812C229.232866 812 0.021487 582.779412 0.021487 300s229.211379-512 511.978511-512 511.978511 229.220588 511.978511 512S794.76713 812 511.999998 812zM793.886063 140.426655c-13.223163-12.342096-35.924187 1.102101-57.744145 31.296797-9.476839-25.566282-21.818935-49.149397-36.144198-70.309322 30.854728-11.019984 50.691519-28.211529 50.691519-47.608298 0-33.500998-59.287291-60.611449-132.457778-60.611449-43.417859 0-81.767282 9.476839-106.010429 24.24417-24.023136-14.767332-62.59257-24.24417-106.010429-24.24417-73.17151 0-132.457778 27.109428-132.457778 60.611449 0 19.174712 19.835767 36.586267 50.691519 47.608298-14.546298 21.158902-26.66736 44.742017-36.144198 70.309322-21.818935-29.974685-44.518936-43.639916-57.744145-31.296797-18.072611 16.97051-11.239995 76.921927 15.647375 133.785006 6.170536 13.004175 12.783141 24.685215 19.614733 34.82311 3.746324 165.30386 112.62201 297.986765 246.180865 297.986765l0.441045 0c133.558855 0 242.434541-132.462894 246.180865-297.986765 6.832615-10.138918 13.444197-21.819958 19.614733-34.82311C804.906048 217.347558 811.958674 157.397165 793.886063 140.426655z"  horiz-adv-x="1024" />

    
    <glyph glyph-name="zhengque" unicode="&#58904;" d="M512 748C264.64 748 64 547.36 64 300s200.64-448 448-448 448 200.64 448 448S759.36 748 512 748L512 748zM437.312 76 213.312 300 288 374.688l149.312-149.376L736 524l74.688-74.688L437.312 76 437.312 76zM437.312 76"  horiz-adv-x="1024" />

    
    <glyph glyph-name="zliconwarning01" unicode="&#58959;" d="M512 842.637c-265.102 0-479.985-214.913-479.985-479.985s214.883-479.985 479.985-479.985 479.985 214.913 479.985 479.985-214.913 479.985-479.985 479.985zM467.002 664.623c0 24.839 20.129 44.998 44.998 44.998s44.999-20.159 44.999-44.998v-385.248c0-24.839-20.129-44.999-44.999-44.999s-44.998 20.159-44.998 44.999v385.248zM512 15.713c-40.049 0-72.508 32.459-72.508 72.508 0 40.019 32.459 72.508 72.508 72.508s72.508-32.459 72.508-72.508c-0.030-40.079-32.459-72.508-72.508-72.508z"  horiz-adv-x="1024" />

    
    <glyph glyph-name="code1" unicode="&#58881;" d="M293.0688 56.8c-12.0832 0-24.2688 4.2496-33.9968 12.9024L0 300l273.4592 243.0976C294.5536 561.7856 326.912 559.9936 345.7024 538.848c18.7904-21.1456 16.896-53.504-4.2496-72.2944L154.112 300l172.9536-153.7024c21.1456-18.7904 23.04-51.1488 4.2496-72.2944C321.2288 62.5856 307.1488 56.8 293.0688 56.8zM751.0528 56.9024 1024.512 300l-259.072 230.2976c-21.1456 18.7904-53.504 16.896-72.2432-4.2496-18.7904-21.1456-16.896-53.504 4.2496-72.2944L870.4 300l-187.3408-166.5024c-21.1456-18.7904-23.04-51.1488-4.2496-72.2944C688.896 49.7856 702.976 44 717.056 44 729.1392 44 741.3248 48.2496 751.0528 56.9024zM511.5392-15.648l102.4 614.4c4.6592 27.904-14.1824 54.272-42.0864 58.9312-28.0064 4.7104-54.3232-14.1824-58.88-42.0864l-102.4-614.4c-4.6592-27.904 14.1824-54.272 42.0864-58.9312C455.5264-58.1952 458.2912-58.4 461.1072-58.4 485.6832-58.4 507.392-40.6336 511.5392-15.648z"  horiz-adv-x="1025" />

    
    <glyph glyph-name="github" unicode="&#59189;" d="M1.3 286.7c0-223 142.9-412.6 342.1-482.2 26.8-6.8 22.7 12.4 22.7 25.4l0 88.5C211.2-99.8 205 2.8 194.5 19.9c-21.1 35.9-70.7 45-55.9 62.1 35.3 18.2 71.2-4.6 112.9-66.1 30.2-44.6 88.8-37.1 118.7-29.6 6.5 26.8 20.5 50.7 39.6 69.4-160.3 28.5-227.3 126.5-227.3 243 0 56.4 18.6 108.4 55.2 150.3-23.2 69.2 2.2 128.2 5.6 137 66.3 6 135.1-47.4 140.5-51.6 37.7 10.1 80.7 15.6 128.8 15.6 48.4 0 91.6-5.6 129.5-15.8 12.9 9.8 76.8 55.6 138.4 50 3.3-8.8 28.1-66.5 6.3-134.7 37-42 55.8-94.3 55.8-151 0-116.7-67.3-214.8-228.2-243.1 26.9-26.5 43.5-63.3 43.5-104l0-128.4c0.9-10.2 0-20.5 17.2-20.5 202.1 68.1 347.6 259.1 347.6 484.1 0 282.1-228.7 510.7-510.7 510.7C229.9 797.4 1.3 568.8 1.3 286.7z"  horiz-adv-x="1024" />

    
    <glyph glyph-name="message" unicode="&#58935;" d="M511.999-35.883c-28.734 0-56.729 2.604-83.97 7.1L231.233-148.186 231.233 50.593C128.618 122.645 62.772 233.11 62.772 357.174c0 217.08 201.13 393.059 449.229 393.059 248.084 0 449.229-175.98 449.229-393.059C961.229 140.083 760.083-35.883 511.999-35.883zM511.999 694.083c-217.087 0-393.074-150.852-393.074-336.908 0-114.166 66.422-214.897 167.762-275.819l-1.769-130.234 132.172 79.456c30.448-6.498 62.117-10.311 94.91-10.311 217.102 0 393.073 150.825 393.073 336.907C905.073 543.23 729.102 694.083 511.999 694.083zM736.614 301.023c-31.011 0-56.153 25.128-56.153 56.149 0 31.011 25.143 56.152 56.153 56.152 31.012 0 56.153-25.143 56.153-56.152C792.768 326.151 767.624 301.023 736.614 301.023zM511.999 301.023c-31.011 0-56.153 25.128-56.153 56.149 0 31.011 25.144 56.152 56.153 56.152 31.012 0 56.154-25.143 56.154-56.152C568.154 326.151 543.011 301.023 511.999 301.023zM287.386 301.023c-31.011 0-56.153 25.128-56.153 56.149 0 31.011 25.143 56.152 56.153 56.152 31.011 0 56.152-25.143 56.152-56.152C343.538 326.151 318.396 301.023 287.386 301.023z"  horiz-adv-x="1024" />

    
    <glyph glyph-name="weixin1" unicode="&#58882;" d="M318.592 497.263c-32.571 0-64.523 21.514-64.523 53.462 0 32.571 31.954 53.462 63.903 53.462 32.571 0 53.462-20.895 53.462-53.462 0.619-31.954-20.895-53.462-52.843-53.462zM617.835 604.188c32.571 0 53.462-20.895 53.462-53.462 0-31.954-20.895-53.462-53.462-53.462-31.954 0-64.523 21.514-64.523 53.462 0 32.571 32.569 53.462 64.523 53.462zM848.266 488.052c13.518 0 27.037-0.619 41.167-2.455-37.484 172.667-221.828 300.477-431.977 300.477-235.34 0-428.289-160.375-428.29-363.772 0-117.983 63.903-213.84 171.437-288.805l-43.012-129.040 149.935 74.966c53.462-10.443 96.476-21.514 149.935-21.514 12.9 0 26.421 0.619 39.938 1.842-8.599 28.266-13.518 58.99-13.518 89.717 0 186.794 160.375 338.574 364.384 338.574zM992.050 208.468c-20.895 0-42.403 20.895-42.403 42.403 0.619 21.514 21.514 43.012 42.403 43.012 32.569 0 54.075-21.514 54.075-43.012 0-21.514-21.514-42.403-54.075-42.403zM756.707 208.468c-20.895 0-42.403 20.895-42.403 42.403s21.514 43.012 42.403 43.012c32.569 0 53.462-21.514 53.462-43.012 0.619-21.514-20.895-42.403-53.462-42.403zM1238.451 154.389c0 171.437-171.437 310.928-363.772 310.928-203.385 0-363.772-139.483-363.772-310.928 0-171.437 160.375-310.313 363.772-310.313 43.012 0 86.028 11.063 128.428 21.514l117.983-64.523-32.569 106.916c86.028 64.523 149.927 149.927 149.927 246.404z"  horiz-adv-x="1258" />

    
    <glyph glyph-name="maobi" unicode="&#59024;" d="M644.164 353.894c14.354 4.091 28.133 8.193 41.338 12.284 11.476 3.498 23.25 7.012 35.306 10.517 12.054 3.515 22.109 6.73 30.145 9.65l-12.054-46.486c-3.451-12.851-6.603-22.509-9.474-28.937-5.743-15.789-12.487-30.401-20.238-43.856-7.755-13.447-15.068-25.132-21.958-35.072-8.043-11.691-16.366-22.511-24.973-32.451l-105.932-32.445 86.985-15.792c-11.484-9.94-23.829-20.167-37.036-30.684-11.484-8.769-24.54-17.983-39.179-27.626-14.653-9.647-30.002-18.56-46.079-26.759-16.075-8.183-34.014-12.417-53.821-12.703-19.809-0.308-38.617 1.021-56.415 3.941-20.67 2.921-41.338 7.885-62.006 14.905 6.322 9.94 13.214 21.046 20.67 33.321 6.322 10.537 13.925 22.955 22.819 37.28 8.902 14.327 18.237 30.26 28 47.792 27.553 47.354 54.255 93.84 80.093 139.438 25.834 45.606 49.074 86.828 69.75 123.663 23.541 42.67 46.22 83.014 68.038 121.021-26.989-31.573-55.404-66.946-85.257-106.124-25.839-33.314-54.551-72.93-86.125-118.82-31.573-45.892-63.728-96.034-96.452-150.41-6.892-11.097-14.643-23.968-23.25-38.587-8.622-14.619-17.655-30.11-27.13-46.476-9.465-16.369-19.238-33.181-29.281-50.437-10.047-17.246-19.95-34.049-29.706-50.426-22.977-37.999-46.508-77.757-70.626-119.264 0.579 12.277 2.878 28.059 6.892 47.356 3.44 16.369 9.184 36.844 17.227 61.389 8.043 24.561 19.511 53.498 34.445 86.828 9.756 21.046 17.227 37.415 22.39 49.105 5.164 11.691 9.184 20.753 12.054 27.186 2.871 7.022 5.171 11.691 6.892 14.028-2.871 3.515-3.44 10.527-1.721 21.055 1.152 9.355 4.451 22.938 9.903 40.778 5.452 17.833 14.78 42.828 27.982 74.987 13.206 32.737 30.583 67.959 52.102 105.673 21.531 37.716 45.789 75.13 72.771 112.259 26.989 37.122 56.274 73.078 87.847 107.857 31.573 34.796 63.868 65.632 96.889 92.529 33.006 26.896 66.020 48.971 99.025 66.217 33.023 17.246 65.026 27.028 96.030 29.38 0.57-20.467-1.44-47.506-6.032-81.129-4.594-33.607-10.335-69.564-17.229-107.867-6.884-38.293-14.628-77.17-23.25-116.626-8.605-39.471-16.937-75.287-24.961-107.447l-115.41-64.016zM644.164 353.894z"  horiz-adv-x="1024" />

    
    <glyph glyph-name="gengduo" unicode="&#58919;" d="M103.863021 590.928886c-12.035104 0-21.134343 3.709485-29.423123 12.000312-8.192589 8.191566-11.999288 17.533328-11.999288 29.441543l0 23.901363c0 12.066827 3.722788 21.151739 11.999288 29.453822 8.28878 8.277524 17.356296 11.987009 29.423123 11.987009l813.506938 0c12.072967 0 21.165042-3.709485 29.453822-11.987009 8.320503-8.302083 12.011568-17.388019 12.011568-29.453822l0-23.901363c0-11.894911-3.807722-21.249977-12.011568-29.423123-8.31334-8.308223-17.380856-12.017708-29.453822-12.017708L103.863021 590.92991 103.863021 590.928886zM103.863021 590.928886M103.863021 279.77217c-12.035104 0-21.134343 3.685949-29.423123 12.010545-8.276501 8.308223-11.999288 17.375739-11.999288 29.446659l0 23.89727c0 12.065803 3.722788 21.152762 11.999288 29.453822 8.28878 8.302083 17.388019 12.005428 29.423123 12.005428l813.506938 0c12.072967 0 21.128203-3.703345 29.453822-12.005428 8.320503-8.30106 12.011568-17.381879 12.011568-29.453822l0-23.89727c0-12.07092-3.691065-21.12718-12.011568-29.446659-8.31334-8.325619-17.380856-12.010545-29.453822-12.010545L103.863021 279.77217 103.863021 279.77217zM103.863021 279.77217M103.863021-63.375144c-12.035104 0-21.134343 3.697205-29.423123 12.011568-8.276501 8.3072-11.999288 17.374716-11.999288 29.416983l0 23.913643c0 11.915377 3.813862 21.256116 11.999288 29.453822 8.16189 8.162914 17.540492 11.968589 29.423123 11.968589l813.506938 0c12.072967 0 21.165042-3.691065 29.473265-11.999288 8.173147-8.17417 11.980869-17.508769 11.980869-29.436426l0-23.913643c0-12.042267-3.691065-21.097504-12.011568-29.416983-8.31334-8.314363-17.374716-12.011568-29.453822-12.011568L103.863021-63.388447 103.863021-63.375144zM103.863021-63.375144"  horiz-adv-x="1024" />

    
    <glyph glyph-name="shandian-copy" unicode="&#58884;" d="M808.421 417.25h-197.949l66.318 433.269-461.211-566.583h230.103l-65.313-433.269 428.052 566.583z"  horiz-adv-x="1024" />

    
    <glyph glyph-name="biaoqing1" unicode="&#58915;" d="M922.307 515.372c-22.511 53.221-54.733 101.015-95.772 142.053s-88.833 73.261-142.053 95.771c-55.11 23.31-113.642 35.129-173.968 35.129s-118.857-11.819-173.967-35.129c-53.221-22.511-101.015-54.733-142.053-95.771s-73.261-88.833-95.771-142.053c-23.31-55.11-35.129-113.641-35.129-173.967s11.819-118.857 35.129-173.967c22.511-53.221 54.733-101.016 95.771-142.053 41.039-41.039 88.833-73.262 142.053-95.772 55.11-23.309 113.641-35.128 173.967-35.128 94.076 0 184.072 28.894 260.262 83.558 8.036 5.765 9.875 16.953 4.111 24.99-5.765 8.036-16.953 9.875-24.99 4.111-70.066-50.271-152.842-76.843-239.382-76.843-55.506 0-109.343 10.866-160.015 32.299-48.952 20.705-92.919 50.35-130.68 88.111-37.761 37.76-67.406 81.727-88.111 130.679-21.432 50.672-32.3 104.509-32.3 160.015 0 55.507 10.868 109.343 32.3 160.015 20.705 48.952 50.35 92.919 88.111 130.68 37.761 37.761 81.728 67.406 130.68 88.111 50.672 21.432 104.508 32.3 160.015 32.3 55.507 0 109.344-10.868 160.015-32.3 48.953-20.705 92.92-50.35 130.68-88.111 37.761-37.761 67.406-81.728 88.111-130.68 21.432-50.672 32.299-104.508 32.299-160.015 0-102.138-37.708-200.063-106.176-275.733-6.635-7.333-6.070-18.658 1.264-25.294 7.333-6.635 18.658-6.069 25.294 1.264 74.438 82.269 115.434 188.726 115.434 299.763 0.001 60.326-11.818 118.857-35.127 173.968zM739.198 522.49c-33.023 0-59.89-27.39-59.89-61.057s26.867-61.058 59.89-61.058 59.89 27.39 59.89 61.058c0.001 33.667-26.866 61.057-59.89 61.057zM340.194 461.433c0 33.667-26.867 61.057-59.89 61.057-33.023 0-59.889-27.39-59.889-61.057 0-33.667 26.866-61.058 59.889-61.058 33.023 0.001 59.89 27.391 59.89 61.058zM398.712 141.479c51.881 0 95.949 34.038 111.039 80.94 15.090-46.902 59.158-80.94 111.040-80.94 64.298 0 116.609 52.278 116.609 116.536 0 47.318-28.266 89.594-72.011 107.703-9.139 3.783-19.613-0.56-23.395-9.697-3.783-9.138 0.558-19.613 9.697-23.396 30.309-12.547 49.894-41.834 49.894-74.611 0-44.509-36.243-80.72-80.793-80.72s-80.794 36.212-80.794 80.72c0 13.302 3.302 26.479 9.549 38.108 4.681 8.713 1.412 19.57-7.3 24.25-8.712 4.68-19.569 1.411-24.25-7.3-3.342-6.221-6.098-12.746-8.248-19.469-2.522 7.877-5.87 15.49-10.031 22.681-4.953 8.56-15.906 11.485-24.469 6.53-8.56-4.954-11.484-15.909-6.53-24.469 7.058-12.195 10.788-26.141 10.788-40.33 0-44.509-36.243-80.72-80.793-80.72s-80.794 36.212-80.794 80.72c0 30.251 16.705 57.715 43.598 71.679 8.778 4.557 12.199 15.367 7.641 24.145-4.557 8.778-15.366 12.198-24.145 7.642-38.804-20.147-62.91-59.793-62.91-103.464-0.001-64.259 52.309-116.536 116.609-116.536z"  horiz-adv-x="1024" />

    
    <glyph glyph-name="qq-copy" unicode="&#59057;" d="M512 896c-282.767 0-511.979-229.221-511.979-512s229.211-512 511.979-512 511.979 229.221 511.979 512-229.211 512-511.979 512zM793.886 224.427c-13.223-12.342-35.924 1.102-57.744 31.297-9.477-25.566-21.819-49.149-36.144-70.309 30.855-11.020 50.692-28.212 50.692-47.608 0-33.501-59.287-60.611-132.458-60.611-43.418 0-81.767 9.477-106.010 24.244-24.023-14.767-62.593-24.244-106.010-24.244-73.172 0-132.458 27.109-132.458 60.611 0 19.175 19.836 36.586 50.692 47.608-14.546 21.159-26.667 44.742-36.144 70.309-21.819-29.975-44.519-43.64-57.744-31.297-18.073 16.971-11.24 76.922 15.647 133.785 6.171 13.004 12.783 24.685 19.615 34.823 3.746 165.304 112.622 297.987 246.181 297.987h0.441c133.559 0 242.435-132.463 246.181-297.987 6.833-10.139 13.444-21.82 19.615-34.823 26.67-56.864 33.723-116.814 15.65-133.785z"  horiz-adv-x="1024" />

    
    <glyph glyph-name="huiyuan" unicode="&#58931;" d="M32.525 563.684c1.033 2.896 2.068 5.786 3.101 8.681 7.858 23.571 28.533 39.488 53.755 41.145 22.952 1.656 45.901-11.783 56.65-32.874 10.959-21.503 7.858-46.93-8.064-65.744-1.857-2.068-3.719-4.135-5.786-6.619 44.451-27.29 88.696-54.167 132.732-81.249 16.746-10.338 33.496-20.676 50.242-30.601 9.51-5.581 16.952-3.929 22.12 5.375 50.654 92.21 101.307 184.629 152.377 277.873-22.125 11.165-36.391 28.324-37.63 53.755-0.828 17.78 5.375 33.080 17.99 45.485 25.015 24.398 66.158 22.12 88.070-4.962 25.23-31.013 16.129-67.194-23.978-94.483 13.028-23.982 26.257-47.968 39.485-71.95 36.802-66.988 73.396-133.765 110.199-200.753 8.481-15.506 13.851-16.952 28.945-7.858 56.857 34.736 113.711 69.677 170.569 104.408 2.689 1.656 5.168 3.311 8.269 5.169-11.782 11.787-19.23 25.019-20.052 41.349-1.657 30.601 19.431 57.478 48.998 62.441 30.81 5.375 59.335-12.2 68.438-41.972 0.623-2.273 1.657-4.753 2.479-7.029v-20.676c-9.715-31.012-29.567-48.998-63.681-49.204-1.235-3.517-2.479-7.030-3.513-10.544-33.291-114.125-66.572-228.458-99.863-342.583-4.336-14.892-9.505-18.818-24.6-18.818-191.656 0-383.108 0-574.764 0-16.128 0-21.091 3.723-25.433 18.818-27.083 92.618-53.961 185.453-81.044 278.075-7.237 25.016-14.682 50.036-22.124 75.258-25.429 0-44.658 10.132-56.65 32.047-2.891 5.375-4.753 11.371-7.026 17.162-0.211 7.237-0.211 14.057-0.211 20.881v0zM511.771 61.899c89.525 0 179.049 0 268.565 0 23.988 0 43.006-16.952 45.697-39.695 2.689-22.951-12.406-43.828-35.559-48.998-3.311-0.832-6.824-1.032-10.137-1.032-179.040 0-358.088 0-537.338 0-20.468 0-37.627 12.194-43.623 30.6-6.202 18.398-0.416 39.282 15.918 49.823 8.476 5.377 19.642 9.1 29.568 9.1 89.108 0.615 178.011 0.202 266.912 0.202v0 0z"  horiz-adv-x="1039" />

    
    <glyph glyph-name="dianzan" unicode="&#58998;" d="M884.875894 472.856747 646.970506 472.856747c92.185562 340.464205-63.516616 357.853247-63.516616 357.853247-65.993017 0-52.312436-52.182476-57.3031-60.881602 0-166.502152-176.849824-296.971645-176.849824-296.971645l0-472.171899c0-46.607504 63.516616-63.393819 88.433098-63.393819l357.452111 0c33.641191 0 61.036122 88.224344 61.036122 88.224344 88.434122 300.70569 88.434122 390.177444 88.434122 390.177444C944.657442 477.820805 884.875894 472.856747 884.875894 472.856747L884.875894 472.856747 884.875894 472.856747zM884.875894 472.856747M251.671415 472.700181 109.214912 472.700181c-29.420053 0-29.873378-28.89612-29.873378-28.89612l29.420053-476.202703c0-30.309306 30.361495-30.309306 30.361495-30.309306L262.420223-62.707948c25.686009 0 25.458835 20.049638 25.458835 20.049638L287.879058 436.588729C287.879058 473.162716 251.671415 472.700181 251.671415 472.700181L251.671415 472.700181 251.671415 472.700181zM251.671415 472.700181"  horiz-adv-x="1024" />

    
    <glyph glyph-name="ku" unicode="&#58894;" d="M512.00307-64.308399c-247.588935 0-448.311469 200.721511-448.311469 448.305329 0 247.588935 200.722534 448.311469 448.311469 448.311469 247.584841 0 448.305329-200.722534 448.305329-448.311469C960.309422 136.413112 759.587911-64.308399 512.00307-64.308399L512.00307-64.308399zM512.004093 789.771607c-224.112244 0-405.774677-181.662433-405.774677-405.774677 0-224.107127 181.662433-405.768537 405.774677-405.768537 224.106104 0 405.768537 181.662433 405.768537 405.768537C917.77263 608.109174 736.110197 789.771607 512.004093 789.771607L512.004093 789.771607zM556.342927 191.324746M642.565684 357.71945M485.058394 561.801499c0 7.470135-6.231935 13.533224-13.910824 13.533224-47.15395 0-87.129406 28.360931-106.356306 42.001603-4.421706 3.13848-7.898901 5.574972-10.292414 6.955412-6.620791 3.815909-15.131629 1.706875-19.054985-4.737908-3.923356-6.411013-1.753947-14.721283 4.839215-18.538215 1.864464-1.110287 4.620227-3.056616 8.124028-5.574972 21.588691-15.316847 66.517973-47.197952 122.739439-47.197952C478.82646 548.269297 485.058394 554.332387 485.058394 561.801499L485.058394 561.801499zM485.058394 561.801499M661.171438 624.306064c-2.366907-1.381463-5.869684-3.818979-10.321066-6.958482-19.192108-13.620206-59.160401-41.99444-106.306164-41.99444-7.676843 0-13.907755-6.065136-13.907755-13.538341 0-7.473205 6.230911-13.538341 13.907755-13.538341 56.212256 0 101.132328 31.869848 122.717949 47.192835 3.5038 2.492774 6.258541 4.495384 8.148587 5.577019 6.593162 3.817955 8.761548 12.131295 4.839215 18.548448C676.30102 626.038522 667.76153 628.149603 661.171438 624.306064L661.171438 624.306064zM661.171438 624.306064M607.117334 275.89077l-87.337137 41.669028c-3.582595 1.708921-7.682983 1.600451-11.18576-0.275269l-77.242222-41.673122c-6.411013-3.446495-8.952906-11.753695-5.708002-18.569938 3.216251-6.789637 11.029194-9.44 17.440208-6.072299l71.711252 38.691207 81.654718-38.966477c1.714038-0.826831 3.557012-1.211595 5.321192-1.211595 4.931313 0 9.6815 3.004427 11.835559 8.137331C616.592127 264.57505 613.659331 272.74308 607.117334 275.89077L607.117334 275.89077zM607.117334 275.89077M353.133759 223.685781M385.001561 514.185015l-215.487819 0c-9.381671 0-16.986883-9.091052-16.986883-20.305465 0-11.214413 7.605212-20.304442 16.986883-20.304442l42.149982 0c17.522072-40.903595 3.897773-83.748403 3.897773-83.748403-29.591969-77.949326 0-128.472 0-128.472 17.322527-41.86141 4.330632-91.662653 4.330632-91.662653 66.401316 12.991895 115.480104-13.713326 115.480104-13.713326 33.20117 39.696094 4.337795 101.045347 4.337795 101.045347-19.479657 49.079812 0 103.210663 0 103.210663 17.235546 42.171472 14.519692 86.332251 10.119475 113.340371l35.172057 0c9.381671 0 16.986883 9.091052 16.986883 20.304442C401.987421 505.093962 394.382209 514.185015 385.001561 514.185015zM327.699484 370.816746l-1.344624-3.685949c-9.085936-25.26236-20.385283-56.697303 4.728698-121.659851 15.356756-39.649022 5.89936-62.225203-0.548492-71.832002 0 0.023536-0.024559 0.023536-0.048095 0.023536-1.119497 0.449231-2.216481 0.848321-3.312442 1.269923-14.859429 5.599532-29.194926 9.133008-42.759873 10.979052-1.170662 0.146333-2.339278 0.323365-3.50994 0.469698-6.373151 0.721431-12.544711 1.119497-18.518772 1.147126-1.341554 0-2.639107-0.074701-3.979638-0.125867-4.952802-0.122797-9.760295-0.472767-14.338566-1.045819-1.217734-0.149403-2.464121-0.248663-3.659343-0.421602-0.970094-0.149403-1.865487-0.398066-2.812045-0.548492 4.330632 20.608364 5.758144 50.145074-6.297426 71.458495-18.802228 33.239032-17.920138 89.554642-0.248663 140.604318 6.733355 19.517519 0.288572 52.972469-5.770424 76.126818l110.551862 0C340.152097 453.580728 343.837022 416.277124 327.699484 370.816746zM855.267041 514.185015l-215.487819 0c-9.381671 0-16.986883-9.091052-16.986883-20.305465 0-11.214413 7.605212-20.304442 16.986883-20.304442l37.761022 0c-4.400217-27.00812-7.116071-71.168899 10.119475-113.340371 0 0 19.479657-54.131875 0-103.210663 0 0-28.863375-61.349253 4.337795-101.045347 0 0 49.078789 26.705222 115.480104 13.713326 0 0-12.991895 49.801243 4.330632 91.662653 0 0 29.591969 50.522674 0 128.472 0 0-13.624299 42.844807 3.897773 83.748403l39.561018 0c9.381671 0 16.986883 9.091052 16.986883 20.304442C872.252901 505.093962 864.648712 514.185015 855.267041 514.185015zM796.318464 397.44829c17.672498-51.049676 18.553565-107.365286-0.248663-140.604318-12.05557-21.312398-10.628058-50.849108-6.297426-71.458495-0.946558 0.149403-1.841951 0.398066-2.812045 0.548492-1.195222 0.172939-2.441609 0.272199-3.659343 0.421602-4.578272 0.572028-9.385764 0.923022-14.338566 1.045819-1.341554 0.051165-2.639107 0.125867-3.979638 0.125867-5.974062-0.026606-12.145621-0.425695-18.518772-1.147126-1.170662-0.146333-2.338255-0.323365-3.50994-0.469698-13.564947-1.846044-27.901467-5.378497-42.759873-10.979052-1.095961-0.421602-2.192945-0.819668-3.312442-1.269923-0.023536 0-0.048095 0-0.048095-0.023536-6.447852 9.605775-15.904225 32.18298-0.548492 71.832002 25.113981 64.962547 13.814634 96.397491 4.728698 121.659851l-1.344624 3.685949c-16.138562 45.460378-12.453636 82.763982-8.132214 102.758362l110.551862 0C796.029892 450.420759 789.584086 416.965809 796.318464 397.44829z"  horiz-adv-x="1024" />

    
    <glyph glyph-name="dianpuxiangqingyedejiage" unicode="&#58932;" d="M350.72 588.8c12.8 43.52 28.16 79.36 46.080 104.96 17.92 28.16 40.96 53.76 69.12 81.92 25.6 25.6 46.080 43.52 56.32 51.2 10.24 7.68 20.48 12.8 25.6 17.92-25.6-76.8-38.4-143.36-38.4-197.12 0-56.32 12.8-99.84 33.28-135.68 20.48-33.28 51.2-58.88 92.16-76.8 10.24-2.56 17.92-5.12 25.6-7.68 35.84-2.56 43.52 35.84 25.6 117.76-10.24 43.52-23.040 76.8-33.28 99.84 84.48-56.32 145.92-128 189.44-215.040 43.52-87.040 53.76-174.080 33.28-261.12-7.68-33.28-20.48-66.56-35.84-94.72-15.36-28.16-33.28-51.2-51.2-69.12-17.92-17.92-38.4-33.28-66.56-48.64-28.16-15.36-48.64-28.16-66.56-33.28-17.92-7.68-40.96-15.36-69.12-25.6-12.8-2.56-23.040-5.12-33.28-5.12-10.24 0-17.92-2.56-23.040-2.56s-10.24 0-15.36 5.12c-2.56 2.56-5.12 5.12-7.68 7.68-2.56 2.56-2.56 5.12-2.56 12.8 0 5.12 2.56 10.24 2.56 15.36 0 5.12 2.56 10.24 7.68 17.92 2.56 7.68 7.68 15.36 10.24 20.48 2.56 5.12 5.12 12.8 10.24 23.040 10.24 23.040 20.48 43.52 28.16 61.44 7.68 17.92 12.8 35.84 15.36 53.76 7.68 51.2 2.56 97.28-20.48 140.8-23.040 43.52-53.76 84.48-94.72 125.44 10.24-20.48 12.8-61.44 10.24-120.32-2.56-61.44-12.8-107.52-30.72-140.8-7.68-15.36-15.36-30.72-25.6-46.080-10.24-15.36-23.040-30.72-35.84-46.080-15.36-15.36-28.16-28.16-43.52-38.4-15.36-10.24-30.72-15.36-48.64-17.92-17.92-2.56-33.28 2.56-48.64 12.8-35.84 23.040-64 51.2-81.92 84.48-17.92 33.28-28.16 64-33.28 92.16-2.56 15.36-5.12 30.72-5.12 48.64 0 17.92 2.56 38.4 5.12 66.56 5.12 25.6 12.8 53.76 30.72 81.92 15.36 28.16 38.4 53.76 64 76.8-7.68-15.36-10.24-35.84-7.68-56.32 2.56-23.040 5.12-43.52 12.8-61.44 5.12-20.48 15.36-35.84 30.72-46.080 15.36-12.8 30.72-15.36 51.2-10.24 10.24 2.56 17.92 5.12 23.040 10.24 7.68 5.12 12.8 10.24 15.36 15.36 5.12 5.12 7.68 12.8 10.24 17.92 2.56 5.12 5.12 12.8 5.12 23.040 0 10.24 0 17.92 0 25.6 0 7.68 0 17.92-2.56 30.72-2.56 12.8-2.56 23.040-5.12 30.72 0 7.68-2.56 17.92-5.12 33.28-2.56 15.36-5.12 25.6-5.12 30.72-7.68 33.28-5.12 76.8 7.68 117.76z"  horiz-adv-x="1024" />

    
    <glyph glyph-name="houtaiyuyanguanlinew" unicode="&#59277;" d="M512.002 831.422c-247.092 0-447.396-200.156-447.396-447.060 0-228.077 170.916-416.247 391.739-443.631 12.449-2.622 27.61-4.151 45.668-4.151 5.072 0 9.96 0.265 14.68 0.749 244.926 2.516 442.698 201.689 442.698 447.032 0.001 246.904-200.302 447.060-447.389 447.060zM445.528 6.908c-180.107 31.452-317.007 188.472-317.007 377.454 0 27.098 2.82 53.533 8.173 79.044 16.561-17.711 55.593-17.295 65.112 9.168 17.033-10.151 39.922-11.996 39.922-32.287 0-66.962 2.383-138.749 63.224-139.861 1.713-0.019 33.93-12.207 49.262-51.973 5.302-13.744 26.271 0 49.269 0 11.477 0 0-19.338 0-61.164 0-41.662 89.82-105.807 89.82-105.807-0.418-27.578 0.714-49.878 3.012-67.691-20.275 0.375-37.363-2.314-50.787-6.883zM606.409 12.87c-1.989 9.734-10.685 15.063-26.556 10.892 12.663 53.92 18.82 84.123 45.251 107.059 38.244 33.149 4.553 70.017-24.547 65.671-22.939-3.461-8.442 28.402-28.917 30.165-20.474 1.713-47.209 42.434-76.676 56.448-15.617 7.416-30.968 27.294-55.055 28.187-21.348 0.827-52.55-18.055-52.55-3.5 0 46.878-4.748 80.327-5.723 93.689-0.788 10.732-7.015 3.612 21.848 2.918 15.707-0.418 8.033 31.55 23.583 32.802 15.27 1.205 51.653-14.295 60.927-8.119 8.61 5.754 63.306-143.567 63.306-24.679 0 14.103-7.307 38.631 0 51.988 28.889 52.796 55.94 95.819 53.51 102.116-1.377 3.543-29.56 6.468-52.106-1.1-7.611-2.54 2.419-14.458-8.513-17.002-40.948-9.456-77.129 11.040-64.461 30.305 12.976 19.745 59.982 8.61 64.106 48.22 2.368 22.686 4.335 48.961 5.649 68.491 55.113-8.618 49.047 71.526-32.903 80.105 165.789-1.943 306.275-109.010 357.826-257.602-2.606 2.38-5.641 3.823-9.144 4.178-24.777 61.886-84.915 17.099-64.515-37.488-109.306-84.026-81.326-142.63-45.414-176.19 18.897-17.642 36.914-44.17 48.645-63.224-12.765-37.23 47.045-22.323 76.543 40.859-37.518-130.128-142.194-231.819-274.111-265.19zM886.697 443.395c0.402 7.577 0.508 14.755 0.304 21.43 5.547-25.947 8.474-52.862 8.474-80.464 0.004-2.114-0.019-4.221-0.054-6.324-1.288 22.304-4.233 44.139-8.724 65.358z"  horiz-adv-x="1024" />

    
    <glyph glyph-name="game" unicode="&#58887;" d="M691.695 541.994c9.894 1.029 19.928 1.593 30.085 1.593 79.019 0 150.854-32.034 204.433-84.308 19.386 35.423 30.524 76.435 30.524 120.199 0 133.74-103.52 242.156-231.21 242.156-82.772 0-155.339-45.576-196.191-114.037 69.518-35.745 126.493-93.968 162.359-165.603zM663.406 755.592c23.215 0 42.038-19.704 42.038-44.020 0-24.322-18.818-44.032-42.038-44.032-23.226 0-42.044 19.715-42.044 44.032-0.006 24.317 18.818 44.020 42.044 44.020zM421.739 229.345c0 144.069 92.603 265.411 218.854 302.507-54.683 98.060-156.16 163.988-272.403 163.988-174.131 0-315.293-147.84-315.293-330.218 0-182.363 141.161-330.208 315.293-330.208 36.655 0 71.814 6.613 104.531 18.658-32.186 50.076-50.983 110.378-50.983 175.272zM284.113 430.618c-46.441 0-84.083 39.429-84.083 88.062s37.642 88.052 84.083 88.052c46.436 0 84.078-39.419 84.078-88.052s-37.642-88.062-84.078-88.062zM721.786 493.517c-139.298 0-252.233-118.268-252.233-264.172 0-145.898 112.929-264.177 252.233-264.177 139.309 0 252.243 118.279 252.243 264.177 0 145.904-112.934 264.172-252.243 264.172zM638.648 273.377c-34.828 0-63.061 29.572-63.061 66.047s28.232 66.037 63.061 66.037c34.823 0 63.055-29.567 63.055-66.037 0-36.48-28.232-66.047-63.055-66.047zM504.94 12.283c-28.108-11.858-57.951-20.123-89.027-24.327 7.427-50.274 48.898-88.824 99.092-88.824 33.878 0 63.778 17.591 81.961 44.46-34.756 16.685-65.941 40.117-92.026 68.691zM485.899-66.302c-11.608 0-21.017 9.863-21.017 22.015s9.409 22.011 21.017 22.011c11.613 0 21.022-9.858 21.022-22.011s-9.409-22.015-21.022-22.015z"  horiz-adv-x="1024" />

    
    <glyph glyph-name="qq3" unicode="&#58977;" d="M715.19502716 469.37443897c-1.04794681 67.41793906-21.07538318 120.97968583-59.50011505 159.17154077-49.02064242 48.78776547-112.24679197 57.17134336-135.53450895 58.56860614l0 0.11643904-1.16438585 0c-3.84247353 0.23287694-6.28768313 0.23287694-6.75343815 0.23287695l-6.17124523-0.11643904-6.17124523 0.11643904c-0.58219293 0-2.67808768 0-6.52056006-0.23287695l-1.16438586 0 0-0.11643904c-23.28771584-1.39726279-86.63030443-9.66440277-135.65094683-58.45216824-38.42473187-38.30829283-58.56860615-91.87004075-59.50011506-159.17154077-13.04112128-17.11647175-26.54799645-46.80830976-14.43838408-74.98644593-18.86305053-24.45210169-56.82202738-82.55495395-44.24666112-141.58931514 1.51370183-7.56850802 10.13015666-43.31515221 38.30829284-47.62337963 15.9520859-2.44521074 29.69183801 6.28768313 40.98638052 18.86305053 4.19178837-9.43152469 9.31508679-19.32880441 15.25345394-28.41101426-3.60959659-2.21233266-7.33563107-4.54110435-11.17810347-7.21919203-26.89731243-18.63017245-39.70555677-38.07541589-37.72609991-57.63709725 0.93150891-9.19864775 5.5890523-22.58908501 22.93840099-34.23294236 11.87673543-7.917824 28.52745216-14.32194503 50.88366023-19.67812039l0.69863197-0.11643904c1.04794681-0.23287694 11.99317333-2.3287717 28.29457521-2.3287717 22.35620807 0 54.60969472 4.07535047 84.65084872 22.82196196l2.67808768 1.63013973 5.47261325-1.04794681c9.31508679-1.86301781 18.51373454-2.67808768 27.82882134-2.67808768 9.31508679 0 18.63017245 0.93150891 28.17813618 2.67808768l3.72603448 0.69863197 2.56164864-1.74657878c28.87676814-18.63017245 59.03436117-23.0548389 80.92481423-23.0548389 17.46578773 0 29.57540011 2.79452558 31.43841678 3.26028061 22.35620807 5.35617422 39.0069248 11.76029639 50.88366024 19.67812039 17.34934869 11.52741945 22.12332999 24.91785671 22.93840099 34.23294236 1.86301781 19.56168135-10.82878862 39.0069248-37.72609992 57.63709725-3.72603449 2.56164864-7.56850802 5.00685938-11.17810346 7.21919203 5.93836715 9.08220985 11.06166557 19.09592747 15.25345394 28.41101426 11.41098041-12.57536626 25.03429461-21.30826013 40.98638051-18.86305053 28.17813618 4.30822741 36.79459214 40.05487161 38.42473188 47.62337963 12.57536626 59.03436117-25.38361059 117.1372123-44.13022208 141.58931514C741.74302361 422.56612921 728.23614844 452.14152932 715.19502716 469.37443897zM972.87360779 550.29925319c-24.80141767 58.56860615-60.19874702 111.08240611-105.26047802 156.14413711-45.06173099 45.06173099-97.69196999 80.57549824-156.1441371 105.260478C650.80449177 837.32035584 586.53039541 850.36147712 520.1604043 850.36147712s-130.64408861-13.04112128-191.30858952-38.65760882c-58.56860615-24.80141767-111.08240611-60.19874702-156.14413709-105.260478s-80.57549824-97.69196999-105.26047801-156.14413711C41.83071214 489.63475228 28.78959086 425.36065593 28.78959086 358.99066481s13.04112128-130.64408861 38.65760882-191.3085895c24.80141767-58.56860615 60.19874702-111.08240611 105.26047801-156.14413711 45.06173099-45.06173099 97.69196999-80.57549824 156.14413709-105.260478 60.54806187-25.61648754 124.93859726-38.65760882 191.30858952-38.65760883s130.64408861 13.04112128 191.30858951 38.65760883c58.56860615 24.80141767 111.08240611 60.19874702 156.1441371 105.260478 45.06173099 45.06173099 80.57549824 97.69196999 105.26047801 156.14413711 25.61648754 60.54806187 38.65760882 124.93859726 38.65760882 191.3085895S998.49009532 489.63475228 972.87360779 550.29925319zM520.1604043-81.14717354000004c-242.65800363 0-440.13783723 197.4798336-440.13783723 440.13783722s197.4798336 440.13783723 440.13783723 440.13783723 440.13783723-197.4798336 440.13783723-440.13783723S762.81840678-81.14717354000004 520.1604043-81.14717354000004z"  horiz-adv-x="1024" />

    
    <glyph glyph-name="QQ" unicode="&#58895;" d="M135.72096 316.19072c-31.86688-76.7488-37.09952-149.9648-11.43296-163.584 17.63328-9.49248 45.3632 12.032 71.2704 51.44576 10.3424-42.93632 35.64032-81.73568 71.8848-112.9984-38.0672-14.35136-62.87872-37.82144-62.87872-64.34304 0-43.65824 67.25632-78.93504 150.21056-78.93504 74.8032 0 136.832 28.70784 148.26496 66.4064a426.30656 426.30656 0 0 0 17.87904 0c11.43808-37.69856 73.58976-66.4064 148.39296-66.4064 82.944 0 150.21056 35.39456 150.21056 78.93504 0 26.5216-24.81152 49.99168-62.88384 64.34816 36.2496 31.1296 61.66528 70.05696 71.8848 112.99328 25.9072-39.40864 53.51424-60.81536 71.15264-51.45088 25.66144 13.6192 20.55168 86.9632-11.43808 163.58912-25.04704 60.32896-59.1104 104.72448-85.0176 114.58048 0.36864 3.76832 0.60928 7.7824 0.60928 11.55072 0 23.23456-6.31808 44.88192-17.152 62.39744 0.24576 1.33632 0.24576 2.79552 0.24576 4.13696 0 10.7008-2.55488 20.79744-6.8096 29.43488-6.56896 156.7744-106.42432 281.20576-268.07296 281.20576S250.4192 695.0656 243.968 538.28608a67.56864 67.56864 0 0 1-6.8096-29.43488c0-1.3312 0.12288-2.79552 0.12288-4.13184-10.7008-17.51552-17.02912-39.04512-17.02912-62.39744 0-3.8912 0.12288-7.65952 0.4864-11.55584-25.78432-9.85088-59.96544-54.2464-85.0176-114.57536z"  horiz-adv-x="1024" />

    
    <glyph glyph-name="icon-test" unicode="&#58886;" d="M536.486576-103.411663c-269.340547 0-487.670735 218.330188-487.670735 487.670735v0.438904s-2.096984 13.752315 12.045467 27.845999c11.460262 11.460262 26.919425 10.679989 26.919424 10.679989s15.312861 0.877807 26.67559-10.484921c12.191768-12.143001 11.362728-28.041067 11.362728-28.041067v-0.877808a410.179855 410.179855 0 0 1 410.228622-410.228622 410.131088 410.131088 0 0 1 410.179856 410.228622 410.179855 410.179855 0 0 1-410.179856 410.179856s-15.556696-1.316711-29.455312 12.581905c-9.607113 9.607113-9.558346 25.846549-9.558347 25.846549s-0.82904 15.459162 10.241086 26.578055c14.093684 14.044917 28.772573 12.874507 28.772573 12.874507h0.438904C805.778356 871.88104 1024.108544 653.550852 1024.108544 384.259072c0-269.340547-218.330188-487.670735-487.621968-487.670735z"  horiz-adv-x="1075" />

    
    <glyph glyph-name="loading" unicode="&#58903;" d="M524.905412 896l-94.117647-94.147765 94.147764-94.117647 94.117647 94.117647zM232.237176 699.632941l121.47953-32.542117 32.527059 121.419294-121.464471 32.572235zM78.848 628.043294l30.644706-114.326588 114.341647 30.644706-30.629647 114.29647zM15.058824 370.522353l78.486588-78.486588 78.516706 78.486588-78.486589 78.501647zM87.883294 118.181647l100.096-26.804706 26.834824 100.126118-100.096 26.804706zM250.277647 31.021176l24.892235-93.063529 93.018353 24.952471-24.922353 93.018353zM462.004706-60.837647l62.930823-62.885647 62.825412 62.885647-62.885647 62.870588zM690.657882-31.909647l78.757647-21.112471 21.097412 78.772706-78.772706 21.112471zM853.037176 181.052235l19.184942-71.664941 71.68 19.230118-19.215059 71.649882zM909.025882 370.492235l47.254589-47.254588 47.22447 47.254588-47.254588 47.254589zM934.896941 607.171765l-57.434353 15.405176-15.390117-57.434353 57.419294-15.36zM772.517647 725.654588l-13.492706 50.296471-50.29647-13.462588 13.447529-50.356706z"  horiz-adv-x="1024" />

    
    <glyph glyph-name="bi" unicode="&#58893;" d="M873.472 641.536c-1.536 6.656-3.072 12.288-5.12 17.408-7.68 16.384-18.432 32.256-32.768 47.616-13.824 15.36-27.136 25.6-38.4 31.744-5.632 2.56-11.776 5.12-19.456 7.68-7.68 2.048-15.36 3.584-23.04 3.584-8.192 0.512-16.384-1.024-24.576-3.072-8.192-2.56-16.384-6.656-24.064-12.8-6.144-5.12-13.824-11.776-22.528-20.48-9.216-8.704-16.896-15.872-23.552-22.016l154.624-154.624c4.096 3.072 8.192 7.168 12.288 11.776 4.096 4.096 8.192 8.192 13.824 13.312 5.12 5.12 11.264 10.752 17.92 17.408 6.144 6.656 10.24 13.312 13.312 20.48 2.56 7.168 4.096 14.336 4.096 21.504-0.512 6.656-1.024 13.824-2.56 20.48zM597.504 629.76l-305.152-305.152c-18.432-18.432-33.28-33.28-45.568-46.08-12.288-12.288-19.968-20.48-23.04-23.552-7.68-7.68-13.824-14.848-17.92-20.992-4.096-6.144-7.68-13.312-11.264-20.992-2.56-5.12-6.144-13.824-10.752-27.136-4.608-13.312-9.216-27.648-13.824-43.52-4.608-15.36-8.704-30.208-13.312-45.568-4.096-14.848-6.656-25.6-7.68-33.28-2.048-14.336-1.024-24.576 4.096-30.72 5.12-6.144 14.848-8.192 29.696-6.656 7.168 1.024 17.92 3.584 32.768 7.68 14.336 4.096 30.208 8.192 46.08 13.824 16.384 5.12 31.744 10.752 46.592 15.872 14.848 5.632 26.112 10.24 33.792 13.824 7.68 3.072 15.36 7.68 22.528 13.312 7.168 5.632 13.312 10.752 18.944 15.872 2.048 1.536 9.216 8.192 20.48 19.968l44.032 44.032c17.408 17.92 37.376 37.376 59.392 58.88L573.44 296.448l177.664 177.664-153.6 155.648z m-77.824-510.464c-25.088 0-45.568-20.48-45.568-45.568s20.48-45.568 45.568-45.568 45.568 20.48 45.568 45.568c0 25.6-20.48 45.568-45.568 45.568z m131.072 0c-25.088 0-45.568-20.48-45.568-45.568s20.48-45.568 45.568-45.568 45.568 20.48 45.568 45.568c-0.512 25.6-20.48 45.568-45.568 45.568z m130.56 0c-25.088 0-45.568-20.48-45.568-45.568s20.48-45.568 45.568-45.568 45.568 20.48 45.568 45.568-20.48 45.568-45.568 45.568z"  horiz-adv-x="1024" />

    
    <glyph glyph-name="xiazai1" unicode="&#58909;" d="M476.16 793.6l71.68 0 0-204.8-71.68 0 0 204.8ZM685.760604 756.640103l62.076701-35.84-102.4-177.362002-62.076701 35.84 102.4 177.362002ZM848.800103 619.831592l35.84-62.076701-177.362002-102.4-35.84 62.076701 177.362002 102.4ZM921.6 419.84l0-71.68-204.8 0 0 71.68 204.8 0ZM884.640103 210.236098l-35.84-62.076701-177.362002 102.4 35.84 62.076701 177.362002-102.4ZM747.852913 47.199897l-62.076701-35.84-102.4 177.362002 62.076701 35.84 102.4-177.362002ZM547.84-25.6l-71.68 0 0 204.8 71.68 0 0-204.8ZM338.223788 11.359897l-62.076701 35.84 102.4 177.362002 62.076701-35.84-102.4-177.362002ZM175.199897 148.159397l-35.84 62.076701 177.362002 102.4 35.84-62.076701-177.362002-102.4ZM102.4 348.16l0 71.68 204.8 0 0-71.68-204.8 0ZM139.359897 557.754891l35.84 62.076701 177.362002-102.4-35.84-62.076701-177.362002 102.4ZM276.162695 720.800103l62.076701 35.84 102.4-177.362002-62.076701-35.84-102.4 177.362002Z"  horiz-adv-x="1024" />

    
    <glyph glyph-name="dianzandian" unicode="&#58898;" d="M993.781 504.119c-25.651 125.887-135.597 217.249-261.366 217.249-15.865 0-31.884-1.475-47.613-4.407-70.837-13.223-126.878-45.342-170.723-97.925-64.643 76.39-150.18 109.965-252.998 99.148-102.393-10.719-195.967-93.867-222.493-197.734-17.903-70.061-10.253-142.297 23.379-220.842 31.826-74.293 79.77-140.218 146.606-201.559 52.060-47.788 106.566-93.946 159.286-138.587l31.185-26.429c22.778-19.359 46.487-38.138 69.42-56.292l3.049-2.407c9.554-7.573 19.127-15.146 28.701-22.835l14.078-11.301 37.030 29.613c16.311 13.010 32.428 25.885 48.448 38.875l29.419 23.807c70.974 57.323 144.354 116.624 210.084 184.064 61.109 62.701 102.275 122.412 129.538 187.967 29.632 71.265 37.826 136.548 24.972 199.598z"  horiz-adv-x="1024" />

    
    <glyph glyph-name="icon-loading" unicode="&#58891;" d="M512.426-127.15c278.507 0 505.024 222.592 511.424 499.563-5.91-241.685-189.675-435.605-415.51-435.606-229.547 0-415.659 200.427-415.659 447.616 0 52.971-42.944 95.936-95.915 95.936-52.95 0-95.915-42.965-95.915-95.936-0.003-282.539 229.035-511.573 511.574-511.573zM512.427 896c-278.507 0-505.024-222.592-511.403-499.563 5.888 241.664 189.653 435.627 415.488 435.627 229.547 0 415.659-200.448 415.659-447.637 0-52.95 42.965-95.915 95.936-95.915 52.928 0 95.894 42.944 95.893 95.915 0 282.539-229.035 511.573-511.573 511.573z"  horiz-adv-x="1024" />

    
    <glyph glyph-name="huiyuan2" unicode="&#58910;" d="M702.976 836.608s-2.56-48.64 20.48-72.192c23.04-23.04 72.192-20.48 72.192-20.48s-48.128 1.536-71.168-21.504-21.504-71.168-21.504-71.168 1.536 49.664-22.016 73.728c-22.528 22.528-70.656 18.944-70.656 18.944s44.544-0.512 67.584 22.016c23.552 24.064 25.088 70.656 25.088 70.656zM898.048 733.696s-1.536-33.28 13.824-49.152c15.872-15.872 49.152-13.824 49.152-13.824s-32.768 1.024-48.64-14.848-14.848-48.64-14.848-48.64 1.024 33.792-14.848 50.176c-15.36 15.36-48.128 12.8-48.128 12.8s30.72-0.512 46.08 15.36c16.384 15.872 17.408 48.128 17.408 48.128zM796.16 642.048h-568.32l-212.992-212.992 497.152-497.664 497.152 497.664-212.992 212.992z m-39.936-247.808c0-5.12-3.584-9.216-8.192-9.216h-8.192c-11.776 0-11.264-2.048-16.896-9.216-42.496-55.808-210.432-276.48-210.432-276.48 0 0.512-0.512 0.512-0.512 1.024v-1.024s-168.448 220.672-210.432 276.48c-5.632 7.168-5.12 9.216-16.896 9.216h-8.192c-4.608 0-8.192 4.096-8.192 9.216v45.568c0 5.12 4.096 9.216 8.192 9.216h83.968c4.608 0 11.264-0.512 16.896-9.216l134.656-184.832v-0.512c0 0.512 0.512 0.512 0.512 0.512l134.656 184.832c5.632 8.192 12.288 9.216 16.896 9.216h83.968c4.608 0 8.192-4.096 8.192-9.216v-45.568z"  horiz-adv-x="1024" />

    
    <glyph glyph-name="loading1" unicode="&#58946;" d="M983.04 371.712c-6.656-259.584-223.744-465.408-483.328-458.752C240.128-79.872 34.304 136.704 40.96 396.288c4.096 154.112 83.456 296.96 212.48 381.952 80.384 52.736 174.08 79.36 270.336 76.8 43.52-1.024 77.824-37.376 76.288-80.384-1.024-43.52-37.376-77.312-80.384-76.288-64.512 1.536-126.464-15.872-180.224-51.2-86.016-56.32-139.264-151.552-141.824-254.464-4.608-173.056 132.608-317.44 305.664-322.048 173.056-4.608 317.44 132.608 322.048 305.664 1.024 43.52 37.376 77.312 80.384 76.288 44.032-1.536 78.336-37.376 77.312-80.896"  horiz-adv-x="1024" />

    
    <glyph glyph-name="loading2" unicode="&#58947;" d="M604.16 476.16c-30.72 30.72 102.4 235.52 133.12 276.48s102.4 40.96 133.12 0c40.96-40.96 40.96-102.4 0-133.12-30.72-51.2-235.52-174.08-266.24-143.36zM634.88 384c0 40.96 235.52 92.16 286.72 92.16s102.4-40.96 102.4-92.16-40.96-92.16-92.16-92.16-296.96 51.2-296.96 92.16zM870.4 158.72c-30.72 40.96-235.52 163.84-266.24 133.12s102.4-235.52 133.12-276.48c30.72-40.96 102.4-40.96 133.12 0 30.72 40.96 40.96 102.4 0 143.36zM512 261.12c-40.96 0-92.16-235.52-92.16-286.72s40.96-102.4 92.16-102.4 92.16 40.96 92.16 92.16-51.2 296.96-92.16 296.96zM419.84 291.84c-30.72 30.72-235.52-102.4-276.48-133.12s-40.96-102.4 0-133.12 102.4-40.96 133.12 0 174.08 235.52 143.36 266.24zM389.12 384c0 40.96-235.52 92.16-286.72 92.16S0 435.2 0 384s40.96-92.16 92.16-92.16 296.96 51.2 296.96 92.16zM419.84 476.16c30.72 30.72-102.4 235.52-133.12 276.48s-102.4 40.96-133.12 0-40.96-102.4 0-133.12 235.52-174.08 266.24-143.36zM512 506.88c-40.96 0-92.16 235.52-92.16 286.72s40.96 102.4 92.16 102.4 92.16-40.96 92.16-92.16-51.2-296.96-92.16-296.96z"  horiz-adv-x="1024" />

    


  </font>
</defs>
</svg>
